PathFileType	4	(X/Y/Z)	Patient4_TMGait_0pt8_01_right_20.trc.trc
DataRate	CameraRate	NumFrames	NumMarkers	Units	OrigDataRate	OrigDataStartFrame	OrigNumFrames
90.322580645161	90.322580645161	4	33	mm	90.322580645161	18	       141
Frame#	Time	Sacral			L.Shoulder			Chest			R.Shoulder			Neck			R.ASIS			L.ASIS			R.Thigh.Superior			R.Thigh.Lateral			R.Thigh.Inferior			R.Patella			L.Thigh.Superior			L.Thigh.Lateral			L.Thigh.Inferior			L.Patella			L.Shank.Superior			L.Shank.Lateral			L.Shank.Inferior			R.Shank.Superior			R.Shank.Lateral			R.Shank.Inferior			R.Heel			R.Midfoot.Superior			R.Midfoot.Lateral			R.Toe			L.Heel			L.Midfoot.Lateral			L.Midfoot.Superior			L.Toe			L.Elbow			L.Wrist			R.Elbow			R.Wrist			
		X1	Y1	Z1	X2	Y2	Z2	X3	Y3	Z3	X4	Y4	Z4	X5	Y5	Z5	X6	Y6	Z6	X7	Y7	Z7	X8	Y8	Z8	X9	Y9	Z9	X10	Y10	Z10	X11	Y11	Z11	X12	Y12	Z12	X13	Y13	Z13	X14	Y14	Z14	X15	Y15	Z15	X16	Y16	Z16	X17	Y17	Z17	X18	Y18	Z18	X19	Y19	Z19	X20	Y20	Z20	X21	Y21	Z21	X22	Y22	Z22	X23	Y23	Z23	X24	Y24	Z24	X25	Y25	Z25	X26	Y26	Z26	X27	Y27	Z27	X28	Y28	Z28	X29	Y29	Z29	X30	Y30	Z30	X31	Y31	Z31	X32	Y32	Z32	X33	Y33	Z33	

18	22.448214285714	905.805239201340	1000.339065301872	439.706373132262	1087.915585559201	1428.808514493872	261.439057436960	1184.835063675369	1359.638039037384	426.295149446875	1094.912631648087	1434.420735752427	596.665560543464	1066.661047225049	1488.854329098899	415.297822017557	1131.484103219961	937.189004380958	559.390477478954	1117.583532572975	958.231290204532	284.264729111010	1206.874951430004	766.994242760835	530.968831365356	1167.447848619470	644.403367161452	608.708171933025	1256.840087662731	609.230309911254	528.257630877282	1292.618136259154	527.253882537554	544.785692749913	1115.114220477796	729.271588958041	308.389299899493	990.727144700927	638.360244605395	253.750999514579	1052.623585862819	542.495792377381	312.416612591775	1037.391377313086	477.389831727084	322.466271865544	1003.494353406821	412.457106945367	317.977340600732	897.510043872481	308.521205875644	277.259819247673	942.568830730055	192.687815595532	345.974165529855	1277.928291629413	439.059539415873	554.538721243321	1227.919381643615	324.365198897107	618.986669155399	1298.007985889734	239.542931594483	566.454243851668	1209.240541992204	49.874918741986	538.241426336855	1370.037776602732	128.487532936166	579.311074660020	1292.826567253831	50.360001385680	612.737400548333	1494.368073990143	94.569874105805	607.211864749348	805.607339786251	43.220011474413	403.318629931773	872.518679884711	37.527093366490	317.697745754905	959.340251856747	96.688845302363	336.581463228758	1083.134731456404	40.637372292152	297.735772362696	1186.038434474599	1110.891647145899	114.854966275380	1430.879944060562	1022.772050734498	136.403038311870	971.497880698028	1113.258609882691	709.156821467261	965.857579962795	850.931806580667	686.884941640657	
19	22.459285714286	907.199733778807	998.791803880761	441.429873265516	1088.569601186279	1427.419640042383	263.148768392802	1185.776170971449	1358.217376063413	427.810445314873	1096.009913380088	1432.922344851239	598.264301722912	1067.277646511163	1487.232114993551	416.957748833125	1133.009855758957	935.324306196131	560.918000977947	1118.747012102623	956.576806923871	285.914954361129	1206.545844327070	763.513477495998	532.593837022607	1165.281081439903	640.992606825247	609.703484244673	1254.283746891483	605.635968228378	528.925825211552	1289.284356479452	524.823138099669	544.554193470772	1113.824975322530	727.395099212768	309.739496728149	988.367867208113	637.839304210448	254.727636630875	1048.997166059777	541.263726551586	313.553658154679	1033.112630835693	476.041995194041	323.350345020246	998.444134073632	411.590695480213	318.659094928459	891.236777007351	308.895238752035	277.777863342316	934.980626953651	192.435267346281	346.193526220184	1276.715490528559	436.642112143209	554.568493791819	1228.864564554491	320.499362849654	618.085048617906	1301.381828490727	237.492893059675	565.524123646965	1217.076487396704	46.227817234065	536.195913755711	1376.231361386443	127.422199765828	577.592158361456	1300.399961003250	48.231860200415	610.943213210577	1501.287070920040	95.791717843398	606.058979632088	796.717427741747	43.691141330538	403.202808463460	863.680585794509	37.768318487006	317.646664049843	950.611758224028	96.771526595217	336.568857098298	1074.271375392375	40.416611687834	297.648028292371	1186.965689513429	1109.996979889088	116.428794517985	1435.279134215562	1034.284028324285	139.888414079687	967.964839067761	1114.535478152488	711.324266665802	961.534869666571	852.111623872907	687.543196833573	
20	22.470357142857	908.702931215742	997.148298625535	443.383640880395	1089.182327965810	1425.972079424325	264.980779006046	1186.725421739528	1356.805106377973	429.440498796239	1097.080258769920	1431.363144795335	600.003988034713	1067.884748502457	1485.560901891742	418.770216226111	1134.734979785002	933.403055312151	562.552910152855	1120.059013557310	954.821514113847	287.623741956494	1206.800533352430	760.332163150660	534.116786377959	1163.865480508393	637.779741047749	610.450790582603	1252.467566420603	602.370197033067	529.382813847532	1286.515630756146	522.265993536436	544.209125507394	1112.999882652721	725.522482846972	311.192850830704	986.589895657991	637.186227062631	255.838523811431	1046.067356401348	539.937703738369	314.776773595056	1029.547023849181	474.492982200239	324.333548352098	993.988008837266	410.517325736564	319.420811674134	885.386173050747	309.269132334021	278.343670394258	927.543632833685	192.100815361367	346.416484401075	1275.421019694455	433.917576296647	554.412111521948	1228.728633036630	316.816996779188	616.897276197337	1302.842895931593	235.097304171739	564.339439468351	1221.189276054205	43.547068154256	533.931898228024	1379.383322687555	125.539772540766	575.546227936396	1304.190774514750	46.299414869826	608.953464408287	1504.759582630980	94.911769020156	604.627425121124	787.813536415830	44.243329836584	403.048732698483	854.848208420682	38.013341485499	317.565671753691	941.910525237478	96.858362242386	336.525892876259	1065.439858479650	40.193839598189	297.546082691419	1187.388157659018	1108.759550787851	118.208809770176	1438.374927265653	1045.189873547274	143.417325409225	965.081162501332	1115.592843599738	713.852183980747	958.409504486342	853.039140828460	688.679767577208	
21	22.481428571429	910.293914357467	995.449399203240	445.560083549502	1089.761831179485	1424.488883293050	266.933531580600	1187.688318538473	1355.428692709423	431.187560557955	1098.136302053985	1429.779640715598	601.891913992457	1068.497918657758	1483.881975569074	420.735428523952	1136.634448217295	931.470900188211	564.295132420093	1121.511994552643	953.014670685200	289.339712579311	1207.667392398070	757.516641702209	535.537006036552	1163.188942246468	634.824187420497	610.934153646323	1251.456611977052	599.501304063824	529.684106872085	1284.389214782382	519.636721224631	543.761902907047	1112.673407494630	723.686094586968	312.697804534089	985.424670101309	636.405983570461	257.086239999798	1043.925508877356	538.519226886545	316.040596248620	1026.803372015689	472.728564282214	325.357763861184	990.193070344179	409.230588742020	320.232819838491	879.999927575636	309.673620763434	278.953001109368	920.287067511980	191.705131468345	346.619979413826	1274.149548786274	430.961925488423	554.071087436302	1227.723939682444	313.351465069547	615.549078111866	1302.588018340284	232.361632313250	562.964888807651	1221.767593880916	41.709056564132	531.654066066405	1379.739181273755	122.849753249961	573.255962777718	1304.470717495334	44.502253250467	606.922279692481	1505.105584243588	91.991681090058	602.904937208713	778.901459580384	44.932128832211	402.845519031605	846.022435405966	38.270788108190	317.449048519201	933.258195607208	96.945093478019	336.427078057475	1056.642074085763	39.974763929370	297.431326716068	1187.303508075899	1107.189959306910	120.185062177803	1440.219354098723	1055.340282777360	146.957415891964	962.969173882480	1116.358041416379	716.715787790295	956.543822812374	853.661392092565	690.263511478545	
